# Blender 4.5.7 LTS
# www.blender.org
mtllib cube_rubik.mtl
o Cube
v -100.000000 78.691208 -78.691208
v 100.000000 78.691208 -78.691208
v 92.319588 79.844757 -92.319588
v 92.319588 92.319588 -79.844757
v -100.000000 78.691208 78.691208
v 100.000000 78.691208 78.691208
v 92.319588 92.319588 79.844757
v -100.000000 -78.691208 -78.691208
v 100.000000 -78.691208 -78.691208
v 92.319588 -79.844757 -92.319588
v -100.000000 -78.691208 78.691208
v 100.000000 -78.691208 78.691208
v 88.161316 -88.161316 88.161316
v -78.691208 100.000000 -78.691208
v -92.319588 92.319588 -79.844757
v 78.691208 100.000000 -78.691208
v 79.844757 92.319588 -92.319588
v 88.161316 88.161316 -88.161316
v -78.691208 100.000000 78.691208
v -92.319588 92.319588 79.844757
v -88.161316 88.161316 88.161316
v 78.691208 100.000000 78.691208
v -78.691208 -100.000000 -78.691208
v -92.319588 -92.319588 -79.844757
v 78.691208 -100.000000 -78.691208
v 92.319588 -92.319588 -79.844757
v 88.161316 -88.161316 -88.161316
v -78.691208 -100.000000 78.691208
v -92.319588 -92.319588 79.844757
v -88.161316 -88.161316 88.161316
v 78.691208 -100.000000 78.691208
v 92.319588 -92.319588 79.844757
v -78.691208 78.691208 -100.000000
v -92.319588 79.844757 -92.319588
v -79.844757 92.319588 -92.319588
v -88.161316 88.161316 -88.161316
v 78.691208 78.691208 -100.000000
v -78.691208 78.691208 100.000000
v -92.319588 79.844757 92.319588
v -79.844757 92.319588 92.319588
v 78.691208 78.691208 100.000000
v 92.319588 79.844757 92.319588
v 79.844757 92.319588 92.319588
v 88.161316 88.161316 88.161316
v -78.691208 -78.691208 -100.000000
v -92.319588 -79.844757 -92.319588
v -79.844757 -92.319588 -92.319588
v -88.161316 -88.161316 -88.161316
v 78.691208 -78.691208 -100.000000
v 79.844757 -92.319588 -92.319588
v -78.691208 -78.691208 100.000000
v -92.319588 -79.844757 92.319588
v -79.844757 -92.319588 92.319588
v 78.691208 -78.691208 100.000000
v 92.319588 -79.844757 92.319588
v 79.844757 -92.319588 92.319588
vn -0.0000 -0.0000 -1.0000
vn 0.8712 -0.0000 -0.4910
vn -0.8712 0.4910 -0.0000
vn -0.7492 0.4683 -0.4683
vn 1.0000 -0.0000 -0.0000
vn -1.0000 -0.0000 -0.0000
vn 0.8712 0.4910 -0.0000
vn 0.7492 0.4683 -0.4683
vn 0.8712 -0.0000 0.4910
vn -0.7492 0.4683 0.4683
vn -0.4910 -0.0000 -0.8712
vn 0.7492 0.4683 0.4683
vn -0.8712 -0.4910 -0.0000
vn -0.7492 -0.4683 -0.4683
vn -0.4910 -0.8712 -0.0000
vn -0.0000 0.4910 -0.8712
vn 0.7492 -0.4683 -0.4683
vn -0.7492 -0.4683 0.4683
vn 0.7492 -0.4683 0.4683
vn 0.4910 0.8712 -0.0000
vn -0.4683 0.7492 -0.4683
vn -0.0000 1.0000 -0.0000
vn 0.4683 0.7492 -0.4683
vn -0.0000 0.8712 -0.4910
vn -0.4683 0.7492 0.4683
vn -0.0000 0.8712 0.4910
vn 0.4683 0.7492 0.4683
vn -0.0000 -1.0000 -0.0000
vn 0.4910 -0.8712 -0.0000
vn -0.0000 -0.8712 -0.4910
vn -0.4683 -0.7492 -0.4683
vn 0.8712 -0.4910 -0.0000
vn 0.4683 -0.7492 -0.4683
vn -0.0000 -0.4910 -0.8712
vn -0.4683 -0.7492 0.4683
vn 0.4683 -0.7492 0.4683
vn -0.4910 0.8712 -0.0000
vn -0.4910 -0.0000 0.8712
vn -0.0000 0.4910 0.8712
vn 0.4910 -0.0000 -0.8712
vn -0.4683 0.4683 -0.7492
vn 0.4683 0.4683 -0.7492
vn 0.4910 -0.0000 0.8712
vn -0.0000 -0.0000 1.0000
vn -0.4683 0.4683 0.7492
vn -0.8712 -0.0000 0.4910
vn 0.4683 0.4683 0.7492
vn -0.0000 -0.4910 0.8712
vn -0.4683 -0.4683 -0.7492
vn 0.4683 -0.4683 -0.7492
vn -0.0000 -0.8712 0.4910
vn -0.4683 -0.4683 0.7492
vn 0.4683 -0.4683 0.7492
vn -0.8712 -0.0000 -0.4910
vt 0.607407 0.267593
vt 0.607407 0.250000
vt 0.607407 0.232407
vt 0.875000 0.517593
vt 0.866204 0.517593
vt 0.777006 0.425463
vt 0.857407 0.517593
vt 0.857407 0.508796
vt 0.857407 0.500000
s 0
usemtl blue
f 1/4/3 5/4/3 20/5/3 15/5/3
f 34/2/4 1/4/4 15/5/4 36/6/4
f 5/3/6 1/3/6 8/3/6 11/3/6
f 39/2/10 21/6/10 20/5/10 5/4/10
f 24/5/13 29/5/13 11/4/13 8/4/13
f 46/2/14 48/6/14 24/5/14 8/4/14
f 52/2/18 11/4/18 29/5/18 30/6/18
f 52/2/46 39/2/46 5/3/46 11/3/46
f 46/2/54 8/3/54 1/3/54 34/2/54
usemtl white
f 16/7/20 22/7/20 7/5/20 4/5/20
f 15/5/21 14/7/21 35/8/21 36/6/21
f 16/7/22 14/7/22 19/7/22 22/7/22
f 4/5/23 18/6/23 17/8/23 16/7/23
f 16/7/24 17/8/24 35/8/24 14/7/24
f 20/5/25 21/6/25 40/8/25 19/7/25
f 22/7/26 19/7/26 40/8/26 43/8/26
f 7/5/27 22/7/27 43/8/27 44/6/27
f 15/5/37 20/5/37 19/7/37 14/7/37
usemtl red
f 51/1/38 38/1/38 39/2/38 52/2/38
f 43/8/39 40/8/39 38/9/39 41/9/39
f 54/1/43 55/2/43 42/2/43 41/1/43
f 38/1/44 51/1/44 54/1/44 41/1/44
f 40/8/45 21/6/45 39/2/45 38/1/45
f 43/8/47 41/1/47 42/2/47 44/6/47
f 56/8/48 54/9/48 51/9/48 53/8/48
f 53/8/52 51/1/52 52/2/52 30/6/52
f 56/8/53 13/6/53 55/2/53 54/1/53
usemtl orange
f 37/1/1 49/1/1 45/1/1 33/1/1
f 45/1/11 46/2/11 34/2/11 33/1/11
f 17/8/16 37/9/16 33/9/16 35/8/16
f 50/8/34 47/8/34 45/9/34 49/9/34
f 49/1/40 37/1/40 3/2/40 10/2/40
f 35/8/41 33/1/41 34/2/41 36/6/41
f 17/8/42 18/6/42 3/2/42 37/1/42
f 47/8/49 48/6/49 46/2/49 45/1/49
f 50/8/50 49/1/50 10/2/50 27/6/50
usemtl yellow
f 23/7/15 28/7/15 29/5/15 24/5/15
f 23/7/28 25/7/28 31/7/28 28/7/28
f 26/5/29 32/5/29 31/7/29 25/7/29
f 25/7/30 23/7/30 47/8/30 50/8/30
f 24/5/31 48/6/31 47/8/31 23/7/31
f 26/5/33 25/7/33 50/8/33 27/6/33
f 29/5/35 28/7/35 53/8/35 30/6/35
f 32/5/36 13/6/36 56/8/36 31/7/36
f 31/7/51 56/8/51 53/8/51 28/7/51
usemtl green
f 10/2/2 3/2/2 2/3/2 9/3/2
f 6/3/5 12/3/5 9/3/5 2/3/5
f 4/5/7 7/5/7 6/4/7 2/4/7
f 3/2/8 18/6/8 4/5/8 2/4/8
f 55/2/9 12/3/9 6/3/9 42/2/9
f 42/2/12 6/4/12 7/5/12 44/6/12
f 10/2/17 9/4/17 26/5/17 27/6/17
f 55/2/19 13/6/19 32/5/19 12/4/19
f 9/4/32 12/4/32 32/5/32 26/5/32
